<?xml version="1.0" encoding="UTF-8"?>
<svg id="Capa_2" data-name="Capa 2" xmlns="http://www.w3.org/2000/svg" xmlns:xlink="http://www.w3.org/1999/xlink" width="300" height="100px" viewBox="0 0 328.97 114.64">
  <defs>
    <style>
      .cls-1 {
        fill: url(#Degradado_sin_nombre_13);
      }
      .cls-2 {
        fill: url(#Degradado_sin_nombre_13-5);
      }

      .cls-3 {
        fill: url(#Degradado_sin_nombre_13-3);
      }

      .cls-4 {
        fill: url(#Degradado_sin_nombre_13-2);
      }

      .cls-5 {
        fill: url(#Degradado_sin_nombre_13-4);
      }
    </style>
    <linearGradient id="Degradado_sin_nombre_13" data-name="Degradado sin nombre 13" x1="-161.59" y1="202.13" x2="-114.34" y2="202.13" gradientTransform="translate(167.38 224.64) rotate(-180)" gradientUnits="userSpaceOnUse">
      <stop offset=".37" stop-color="#fbae17"/>
      <stop offset="1" stop-color="#fff"/>
    </linearGradient>
    <linearGradient id="Degradado_sin_nombre_13-2" data-name="Degradado sin nombre 13" x1="-45.1" y1="155.68" x2="50.89" y2="155.68" xlink:href="#Degradado_sin_nombre_13"/>
    <linearGradient id="Degradado_sin_nombre_13-3" data-name="Degradado sin nombre 13" x1="51.1" y1="176.43" x2="117.59" y2="176.43" xlink:href="#Degradado_sin_nombre_13"/>
    <linearGradient id="Degradado_sin_nombre_13-4" data-name="Degradado sin nombre 13" x1="-111.83" y1="176.43" x2="-45.3" y2="176.43" xlink:href="#Degradado_sin_nombre_13"/>
    <linearGradient id="Degradado_sin_nombre_13-5" data-name="Degradado sin nombre 13" x1="120.09" y1="202.13" x2="167.38" y2="202.13" xlink:href="#Degradado_sin_nombre_13"/>
  </defs>
  <g id="Capa_1-2" data-name="Capa 1">
    <g>
      <path class="cls-1" d="M328.97,27.82c-4.3,.71-8.59,1.59-12.92,2.07-2.52,.28-3.87,1.41-4.9,3.65-1.68,3.65-3.7,7.14-5.58,10.7-.11,.21-.25,.41-.47,.78-1.72-3.27-3.37-6.4-5.02-9.54-.6-1.14-1.3-2.23-1.77-3.42-.51-1.3-1.42-1.72-2.7-1.94-4.47-.75-8.93-1.59-13.39-2.4-.12-.02-.23-.09-.51-.21,.35-.39,.63-.73,.94-1.04,3.04-3.14,6.06-6.3,9.16-9.39,.83-.82,1.05-1.61,.87-2.72-.7-4.44-1.32-8.89-1.96-13.34-.04-.25,0-.5,0-.98,.51,.23,.91,.4,1.3,.59,4.04,1.98,8.08,3.94,12.1,5.96,.74,.37,1.3,.35,2.02-.02,3.98-2,7.99-3.94,11.98-5.9,.42-.2,.84-.38,1.52-.68-.2,1.51-.37,2.84-.54,4.16-.48,3.6-.98,7.21-1.41,10.82-.06,.48,.11,1.14,.42,1.47,3.59,3.73,7.23,7.42,10.86,11.11,0,.09,0,.17,0,.26Z"/>
      <path class="cls-4" d="M193.89,23.29c-.43,3-.84,5.79-1.23,8.58-1.06,7.68-2.14,15.35-3.14,23.03-.07,.52,.25,1.26,.63,1.66,7.17,7.43,14.38,14.83,21.58,22.23,.23,.23,.42,.49,.75,.87-3.73,.65-7.3,1.28-10.87,1.89-7,1.21-14.01,2.4-21.01,3.66-.47,.09-1.01,.59-1.25,1.05-4.81,9.03-9.58,18.09-14.37,27.14-.19,.36-.41,.71-.71,1.25-1.66-3.14-3.24-6.11-4.81-9.09-3.39-6.44-6.77-12.89-10.2-19.31-.26-.48-.87-.97-1.39-1.07-10.19-1.86-20.39-3.65-30.59-5.47-.2-.04-.4-.11-.79-.23,.39-.43,.68-.77,.99-1.09,7.02-7.22,14.04-14.45,21.07-21.66,.54-.55,.8-1.04,.67-1.9-1.5-10.17-2.94-20.34-4.4-30.52-.04-.25-.04-.5-.07-.96,.53,.24,.94,.4,1.34,.6,9,4.41,18,8.81,26.98,13.26,.85,.42,1.51,.45,2.38,.02,8.98-4.45,17.98-8.85,26.98-13.26,.41-.2,.83-.39,1.46-.67Z"/>
      <path class="cls-3" d="M62.5,16.62c.53,.24,.96,.43,1.37,.63,5.92,2.91,11.85,5.8,17.75,8.75,.9,.45,1.61,.42,2.5-.02,5.9-2.95,11.83-5.84,17.75-8.75,.41-.2,.83-.37,1.44-.64-.42,2.96-.82,5.71-1.19,8.46-.59,4.41-1.2,8.82-1.71,13.24-.06,.51,.31,1.2,.7,1.6,4.85,5.03,9.74,10.02,14.61,15.03,.14,.15,.27,.31,.56,.65-2.54,.45-4.91,.87-7.29,1.29-4.73,.82-9.45,1.66-14.19,2.42-.93,.15-1.39,.59-1.8,1.37-3.15,6.04-6.34,12.06-9.52,18.08-.18,.34-.37,.66-.64,1.13-2.06-3.91-4.06-7.7-6.05-11.48-1.32-2.5-2.7-4.97-3.93-7.52-.51-1.06-1.19-1.49-2.3-1.68-6.46-1.11-12.9-2.28-19.35-3.44-.41-.07-.81-.18-1.43-.32,.45-.49,.78-.86,1.13-1.21,4.6-4.74,9.19-9.48,13.83-14.19,.68-.69,.85-1.36,.71-2.29-1.01-6.74-1.98-13.48-2.95-20.22-.04-.24,0-.5,0-.89Z"/>
      <path class="cls-5" d="M225.38,16.59c4.41,2.16,8.63,4.23,12.86,6.31,2.11,1.04,4.25,2.05,6.33,3.14,.8,.42,1.45,.42,2.27,0,5.98-2.98,11.98-5.92,17.98-8.86,.38-.19,.77-.34,1.35-.59-.3,2.2-.59,4.22-.86,6.23-.68,5.05-1.34,10.1-2.06,15.15-.11,.81,.09,1.34,.66,1.92,5.05,5.13,10.07,10.29,15.31,15.66-2.11,.38-4.01,.72-5.91,1.05-5.15,.89-10.3,1.8-15.46,2.63-1.05,.17-1.61,.66-2.08,1.58-3.16,6.08-6.37,12.14-9.57,18.2-.12,.22-.26,.44-.49,.84-1.44-2.72-2.81-5.3-4.17-7.89-1.94-3.68-3.93-7.32-5.77-11.05-.58-1.17-1.36-1.55-2.53-1.76-6.41-1.11-12.82-2.28-19.22-3.43-.37-.07-.74-.17-1.33-.3,.39-.43,.67-.77,.98-1.09,4.6-4.74,9.19-9.49,13.82-14.2,.73-.74,.98-1.41,.81-2.49-1.03-6.69-1.96-13.39-2.91-20.09-.04-.25,0-.5,0-.96Z"/>
      <path class="cls-2" d="M0,27.54c.36-.4,.63-.71,.91-1,3.13-3.23,6.26-6.47,9.42-9.67,.58-.59,.86-1.14,.72-2.02-.7-4.57-1.33-9.15-1.98-13.73-.04-.29-.06-.58-.1-1.1,.6,.27,1.05,.45,1.49,.66,4,1.96,8,3.9,11.98,5.9,.72,.36,1.29,.38,2.02,0,3.98-2,7.98-3.94,11.98-5.9,.42-.2,.84-.38,1.49-.67-.12,1.09-.2,2-.32,2.9-.54,4.07-1.12,8.14-1.6,12.22-.06,.48,.27,1.14,.63,1.51,3.23,3.37,6.51,6.7,9.77,10.04,.26,.27,.5,.57,.9,1.03-2.62,.46-5.07,.89-7.53,1.32-2.57,.45-5.15,.85-7.71,1.36-.49,.1-1.07,.53-1.31,.97-2.29,4.21-4.51,8.47-6.75,12.7-.14,.26-.29,.51-.54,.95-.59-1.09-1.12-2.03-1.62-2.99-1.85-3.52-3.67-7.07-5.58-10.56-.28-.5-.94-1-1.5-1.11-4.7-.93-9.42-1.76-14.13-2.63-.16-.03-.3-.1-.62-.2Z"/>
    </g>
  </g>
</svg>