<?xml version="1.0" encoding="UTF-8"?>
<svg id="Capa_2" data-name="Capa 2" xmlns="http://www.w3.org/2000/svg" viewBox="0 0 2158.94 1232.59">
  <defs>
    <style>
      .cls-1 {
        fill: none;
        stroke: #fff;
        stroke-miterlimit: 10;
        stroke-width: 5px;
      }
    </style>
  </defs>
  <g id="Capa_1-2" data-name="Capa 1">
    <g>
      <path class="cls-1" d="M1284.21,263.04q-2.89-21.9,8.21-24.14c0,5.62,0,11.25,0,16.87,5.46-2.42,10.93-4.83,16.38-7.26,11.24-5.02,20.04-14.23,35.71-7.89,9.84,3.98,23.76-.72,35.39-3.47,2.98-.7,4.21-8.77,7.3-15.88,14.6,5.71,30.02,11.75,47.3,18.51-1.7-4.51-2.37-8.02-4.17-10.79-8.45-12.97-3.19-38.36,10.32-43.75,7.12-2.84,15.17-3.17,15.43,9.27,.3,14.15,4.16,28.52,2.46,42.3-1.15,9.35-9.21,17.85-13.97,26.36,21.89,5.44,23.23-16.75,30.3-31.26-21.59-4.56-1.17-23.27-8.74-34.23,4.63,2.84,9.27,5.69,15.6,9.58,4.96-27.43,21.43-11.41,36.74-8.07-5.62-7.91-9.48-13.34-15.14-21.31,14.44-2.38,25.4-4.18,36.36-5.98-.83-1.27-1.66-2.54-2.48-3.8,7.04-6.14,13.14-14.76,21.33-17.85,13.16-4.96,28.01-5.28,41.54-9.5,7.84-2.44,15.19-7.89,21.51-13.41,8.92-7.79,15.75-14.89,25.65-.33,3.03,4.46,12.68,4.82,19.48,6.18,6.16,1.23,13.07-.09,18.75,2.09,10.9,4.18,11.66,14.41,1.84,20.98-11.93,7.97-24.34,15.21-40.25,25.06,6.48,0,9,.76,10.67-.11,24.91-13.06,49.06-7.63,74.02,.76,6.99,2.35,17.47-1.41,24.79-5.3,11.62-6.18,31.02,2.49,33.06,15.81,1,6.55,3.98,12.8,5.29,16.8,12.23-2.51,20.68-4.38,29.18-5.96,12.11-2.25,25.22,5.39,35.3-12.03,5.99-10.35,23.03-6.86,27.32,1.69,12.49,3.84,20.08,6.52,27.85,8.49,11.91,3.03,23.83,6.36,35.96,8.08,10.21,1.44,22.43-3.24,26.07,12.21,.45,1.92,3.57,4.51,5.5,4.56,15.04,.38,30.09,.21,45.36,.21,3.38,2.86,8.39,7.11,16.82,14.25-.42-9.56-.62-14.05-.82-18.57,35.69,.84,65.99,11.01,87.6,35.22,10.01,2.71,18.5,5.01,22.93,6.22-6.63,6.17-12.36,11.5-18.09,16.82l4.32,5.7c-11.78-6.21-23.56-12.43-32.75-17.27-8.39,6.02-15.77,11.32-23.37,16.76,2.24,3.47,6.52,10.07,10.09,15.59-15.14,7.54-28.39,15.55-42.65,20.8-11.75,4.32-24.65,5.66-37.12,7.8-17.99,3.07-22.61,10.35-21.34,28.53,.57,8.13-1.68,17.93-6.17,24.62-7.75,11.56-18.24,21.29-27.47,31.66-13.24-31.1-10.27-43.74,13.56-66.78,12.09-11.69,22.66-24.97,33.91-37.52-1.57-1.51-3.13-3.02-4.7-4.52-6.56,5.67-13.12,11.33-19.69,17.01-12.59-13.79-21.92-13.2-34.49,5.31-8,11.78-13.19,11.49-27.59,10.27-20.71-1.76-47.3-8.75-64.06,15.65-7.47,10.87-17.24,20.15-27.92,32.38,6.81,1.25,15.37,1.21,22.22,4.61,5.13,2.54,11.83,9.89,11.36,14.44-3.2,31.32-14.15,63.91-41.45,77.04-18.63,8.97-29.03,21.8-42.05,34.31,17.75,26.07,17.52,29.08-1.48,35.01-4.22-12.38-8.41-24.68-13.33-39.12-6.4,1.76-12.64,3.47-19.41,5.34,.53-3.7,1.03-7.18,2.08-14.44-10.4,6.74-18.41,11.92-31.37,20.32,11.24,4.61,19.31,7.92,28.06,11.51-3.6,3.39-8.57,8.07-13.9,13.09,3.62,8.39,8.38,16.04,10.26,24.35,7.24,31.98-9.78,60.27-42.06,70.14-10.83,3.31-22.18,5.13-33.4,6.9-13.76,2.17-20.73,18.43-12.41,30.68,4.22,6.21,10.77,11.22,13.64,17.9,8.28,19.25-4.8,28.55-19.63,36.45-9.59-8.69-19.62-17.77-30.58-27.69-3.03,6.26-5.17,10.67-8.39,17.32-3.91-14.6-7.33-27.35-11.03-41.19-5.01,2.03-9.15,3.71-10.83,4.39-7.2-15.76-13.76-30.13-20.18-44.19-30.93,5.17-41.98,33.54-63.03,49.26-2.9,2.16-1.66,9.5-2.93,14.29-3.24,12.19-6.81,24.3-10.25,36.44-2.9-.04-5.79-.08-8.69-.12-9.07-29.58-18.15-59.15-27.5-89.66-19.07,10.37-16.88-15.54-27.04-22.88-9.27-6.69-16.16-9.05-26.36-8.4-14.15,.91-27.05-4.59-40.22-7.77-19.8-4.78-32.62-13.9-44.99-27.51-.97-1.06-4.68,.38-13.15,1.33,10.44,16.42,18.05,31.21,28.82,43.15,2.42,2.69,15.88-4.57,25.75-7.73-.06-.13,.51,2.3,1.92,4.05,5.24,6.51,16.61,15.65,15.14,18.65-5.59,11.43-13.44,23.72-23.85,30.42-21.25,13.69-44.7,23.97-64.03,33.99-21.09-38.96-40.01-74.06-59.24-108.99-.64-1.17-4.32-.67-10.52-1.44,4.49,10.92,7.88,19.28,11.36,27.59,7.46,17.79,13.91,36.1,22.77,53.17,7.85,15.13,17.96,29.18,28.11,42.95,1.94,2.63,8.86,2.84,13.19,2.21,9.95-1.46,19.72-4.13,32.42-6.94-5.84,25.3-15.46,45.67-32.59,62.37-7.72,7.53-14.89,15.65-22.95,22.78-21.12,18.71-22.16,40.53-12.34,65.3,8.61,21.72,3.43,34.58-15.69,49.61-10.34,8.13-21.44,16.8-13.64,33.3,1.65,3.49,1.44,11.27-.71,12.63-19.08,12.01-18,35.37-30.07,51.76-15.61,21.21-37.02,22.39-58.37,26.31-2.82,.52-9.01-6.25-10.37-10.66-10.2-32.89-17.74-66.74-29.99-98.8-5.93-15.51-5.29-28.87,.33-42.03,10.47-24.48,2.92-46.32-9.75-65.73-8.34-12.78-12.71-23.42-8.15-38.19,3.82-12.36,.32-21.24-15.02-21.74-3.75-.12-7.27-3.7-11.13-4.97-7.37-2.42-15.1-6.59-22.32-5.96-13.85,1.2-28.14,3.51-41.01,8.52-21.05,8.19-32.71-5.7-44.45-17.24-9.28-9.13-16.15-21.05-22.65-32.54-3.21-5.68-4.02-13.16-4.36-19.9-.67-13.48-3.72-28.22,.49-40.25,6.27-17.93,17.86-34.02,27.4-50.77,4.7-8.25,9.58-16.44,14.92-24.28,7.24-10.64,15.01-20.92,20.36-28.31,34.87-6.64,66.86-12.74,98.46-18.76,9.41,30.36,9.28,30.57,34.6,45.39,5.84,3.42,12.85,4.83,21,7.77,2.14-21.6,13.45-16.94,28.03-12.82,16.97,4.8,36.35,9.66,52.64,5.83,16.95-3.98,15.94-24.09,17.08-41.55-5.71,.62-9.78,1.04-13.85,1.51-28.6,3.32-32.56,1.04-42.31-26.99-6.37-18.3-15.14-4.74-21.91-3.52,.46,9.06,.85,16.94,1.25,24.82-2.07,.66-4.15,1.33-6.22,1.99-10.39-28.75-25.4-53.78-51.81-70.57-4.31,15.04,.57,22.8,24.27,40.49-2.05,4.19-4.07,8.33-3.71,7.59-10.82-9.06-23.1-19.27-35.29-29.59-2.35-1.99-5.9-6.56-6.33-6.25-12.13,8.44-30.56,.5-40.07,15.67-7.37,11.77-14.68,23.7-23.26,34.57-10.41,13.19-23.65,13.07-38.78,7.18-13.02-5.07-10.68-13.92-9.51-23.7,1.03-8.58,1.23-17.27,1.85-26.82h41.67c9.76-20.02,2.62-32.88-12.2-38.61,24.49-17.92,49.75-36.41,76.1-55.7q-2.15-23.52,5.78-28.26c.85,.86,2.44,1.76,2.42,2.62-.71,24.68,10.96,32.49,35.04,23.67,4.36-1.6,9.24-2.62,13.85-2.51,10.03,.24,14.7-3.39,15.35-14.06,.89-14.77,1.61-14.73,18.37-11.55-1.04-6.92-1.98-13.15-3.05-20.34,11.15-2.09,21.76-4.08,32.36-6.06-.21-2.3-.43-4.6-.64-6.9-6.54,.33-13.14,1.35-19.62,.83-8.23-.66-22.5-.95-23.38-4.25-2.57-9.68-6.89-21.85,5.49-30.53,6.34-4.45,10.79-11.59,16.1-17.51-.75-2-1.5-4.01-2.25-6.01-6.28,.88-14.81-.5-18.41,3.08-9.55,9.49-17.26,20.92-25.07,32.02-2.42,3.44-5.26,10.19-3.71,12.21,10.32,13.5,3.86,24.53-3.25,36.12-4.79,7.81-8.81,16.09-15.64,28.7-7.23-18.58-11.8-30.33-16.36-42.03-1.58,0-2.86-.26-3.99,.04-8.24,2.2-20.01,9.06-23.98,5.93-10.99-8.64-6.5-32.05,5.88-41.06,23.74-17.29,38.84-40.66,50.2-67.33,2.34-5.49,9.91-10.44,16.08-12.3,18.99-5.75,38.3-11.17,57.88-13.84,5.69-.78,12.2,9.23,19.2,12.37,19.5,8.77,39.45,16.53,61.37,25.57-17.76,26.06-35.74,10.73-53.5,8.9,7.85,12.78,14.97,24.37,22.08,35.96,1.87-.87,3.74-1.73,5.61-2.6-.57-3.38-1.15-6.75-1.95-11.46,5.71,1.24,10.96,2.39,17.48,3.81-.29-18.65,12.49-20.49,26.62-19.03Zm-106.09,247.26c24.7-10.78,45.66-19.64,68.14-7.39,1.94,1.06,5.29,.82,7.45-.1,4.34-1.85,10.43-3.76,11.76-7.2,1.08-2.81-2.9-8.74-6.08-11.77-5.81-5.54-12.7-9.96-18.67-14.49,2.85-6.61,5.21-12.09,7.58-17.56-1.4-1.32-2.8-2.65-4.2-3.97-8.29,7.36-16.58,14.72-23.96,21.28-3.98-4.35-8.89-9.71-13.79-15.07-5.38,5.54-12.64,10.21-15.71,16.83-5.15,11.11-7.63,23.46-12.5,39.44Zm145.1-32.96c5.9-8.7,9.54-14.06,13.18-19.42-7.83-.01-16.31-1.98-23.36,.35-16.72,5.52-17.27,18.44-9.99,31.83,5.43,9.98,12.03,18.22,7.21,31.45-1.08,2.96,12.47,11.79,20.13,16.57,.8,.5,8.17-7.67,10.85-12.7,1.57-2.94-13.97-39.33-16.62-43.73-1.24-2.06-1.51-4.71-1.4-4.34Z"/>
      <path class="cls-1" d="M43.77,276.58q-22.16,6.48-38.72-11.8c15.39-2.04,27.85-3.7,43.55-5.78-13.1-9.59-23.27-17.03-34.09-24.96,13.92-9.21,26.7-18.32,40.11-26.35,14.73-8.82,29.46-5.44,45.52-1.22,22.3,5.86,47.39,3.35,68.29,11.82,28.79,11.67,52.79-5.68,79.1-5.26,8.64,.14,17.27,1.72,25.88,2.88,19.32,2.59,38.62,5.32,57.93,7.99-.53,2.04-1.07,4.07-1.6,6.11,5.27,2.84,10.26,7.14,15.87,8.2,10.79,2.05,21.93,2.26,33.14,3.26-.15-.96-.9-5.68-2.09-13.2,6.07,.29,11.23,.03,16.2,.86,10.98,1.84,21.82,5.23,32.83,5.85,3.78,.21,10.53-5.36,11.43-9.31,3.33-14.62,2.62-14.79,17.86-4.76-4.09,2.24-7.36,4.04-10.55,5.79,1.56,4.46,3.14,9,5.32,15.24,4.54-5.24,9.85-9,11.48-13.97,1.39-4.25,.02-13.13-2.68-14.35-15.34-6.96-11.86-16.35-5.63-27.19,1.44-2.51,2.11-5.91,1.94-8.83-1.58-25.99-.28-27.05,25.08-19.33-27.73,21.32-12.26,41.24,1.94,61.24,1.03,1.45,1.46,3.33,2.29,5.31,3.04-2.45,5.76-4.65,9.23-7.46,3.17,8.83,5.97,16.63,8.78,24.42,1.53-.11,3.07-.21,4.6-.32,4.17-9.88,8.34-19.76,14.13-33.48,5.2,4.93,15.45,10.57,14.96,15.04-.97,8.98,8.28,27.55-15.55,24.47-4.63-.6-13.02,8.17-15.48,14.3-6.47,16.15-18.45,18.83-33.87,17.55,3.03,2.7,5.7,5.07,8.32,7.4-5.17,5.76-10.66,10.8-14.86,16.75-14.1,19.99-4.96,40.86,18.61,48.36,17.14,5.46,33.14,14.52,48.7,21.54,4.67,11.15,9.57,22.84,14.23,33.96,4.74-1.01,6.79-1.02,6.93-1.53,3.21-12.12,2.93-26.88,10.01-35.86,10.53-13.36,8.15-21.04,.97-34.94-5.36-10.37,.05-26.3,.7-40.54,23.56,1.67,44.52,5.49,51.16,33.05,.89,3.67,9.13,9.32,10.98,8.35,7.23-3.8,13.26-9.88,21.75-16.74,4.07,10.53,7.86,22.87,13.63,34.19,2.84,5.59,9.12,9.58,14.23,13.83,6.91,5.76,15.16,10.25,20.82,16.98,2.26,2.69,.79,13.22-1.78,14.48-11.49,5.66-23.71,11.5-36.2,13.06-15.99,2-30.54,4.24-42.77,20.64,10.94-3.43,18.95-5.93,24.07-7.54,4.3,10.82,6.14,20.84,11.85,27.57,2.82,3.32,12.79,.58,19.79,.58-9.63,5.81-20.13,12.14-30.62,18.47-.74-.68-1.49-1.35-2.23-2.03,2.58-4.21,5.16-8.42,8.46-13.8-38.66,6.27-49.08,44.77-77.01,64.21,8.69,13.98,3.52,25.5-9.66,34.04-17.8,11.53-22.25,26.18-13.21,45.57,2.39,5.13,2.1,11.51,3.04,17.31-1.62,.63-3.24,1.27-4.86,1.9-2.85-4.91-6.62-9.51-8.39-14.78-7.46-22.24-24.06-28.57-46.16-17.48-2.92,1.47-7.01,1.35-10.44,.97-24.79-2.74-36.43,6.67-36.02,32.24,.22,13.95,1.65,28.92,7.06,41.48,7.06,16.36,27.2,14.71,36.51-.46,3.46-5.64,10.3-9.22,15.59-13.74,1.39,1.22,2.78,2.44,4.17,3.66-2.75,12.57-5.5,25.14-8.44,38.56,2.94,.55,5.33,1.45,7.69,1.38,25.54-.82,26.04-.8,23.09,24.25-1.57,13.31,4.67,19.85,15.79,24.2,2.26,.88,4.07,2.93,6.09,4.44-1.92,2.2-3.84,4.4-5.76,6.61-10.36-10.34-20.54-20.87-31.15-30.95-4.79-4.55-10.14-8.69-15.78-12.12-8.56-5.2-17.54-9.69-26.44-14.32-3.86-2.01-8.5-5.84-11.83-5.01-22.01,5.47-36.34-11.19-53.99-17.95-3.78-1.45-8.9-5.65-9.18-8.95-2.49-28.69-25.82-43.5-40.99-63.75-5.54-7.39-9.68-15.83-14.46-23.78-2.25,1.22-4.49,2.45-6.74,3.67,6.72,12.29,13.44,24.57,20.15,36.86-1.27,.8-2.55,1.6-3.82,2.39-4.67-7.7-8.84-15.76-14.09-23.04-15.93-22.08-34.29-42.7-47.68-66.19-7.86-13.77-11.15-31.95-10.91-48.07,.29-19.65,.57-36.54-14.59-52.36-11.03-11.51-16.82-27.9-25.9-41.47-3.62-5.41-9.84-9.08-15.79-14.36-.2,.27,1.81-2.48,4.69-6.42-8.39-4.88-18.9-7.83-22.69-16.4,1.52-1.67,3.05-3.34,4.57-5.01-26.41-8.87-52.81-17.74-78.96-26.53-7.06,6.2-13.99,12.29-20.92,18.37-1.46-.89-2.92-1.78-4.37-2.68,1.8-5.1,3.6-10.21,7.51-21.28-20.3,23.28-37.12,42.58-53.94,61.87-1.16-.95-2.32-1.9-3.48-2.85,5.35-8.35,10.7-16.7,15.49-24.18-16.1-6.07-30.28-10.14-43.06-16.86-5.11-2.69-10.11-11.41-9.72-17,.34-4.92,8.18-9.41,12.89-13.91,5.64-5.38,11.46-10.57,17.21-15.84-1.69-1.75-3.38-3.5-5.08-5.25Zm484.69,170.67q-27.78-21.89-52.48-.06c18.78,0,35.65,0,52.52,0-3.11,1.97-6.01,4.45-9.36,5.83-17.93,7.44-21.65,17.6-10.54,41.12,1.93-10.35,2.04-16.83,4.47-22.27,2.38-5.32,7.13-9.59,10.87-14.35,4.8,9.04,8.15,15.36,11.47,21.62,6.32-7.47,10.69-12.63,16.6-19.61-8.17-4.27-15.86-8.29-23.56-12.28Zm-243.32-173.98c11.48-5.71,21.47-10.68,35.29-17.55-20.59-6.66-37.36-15.24-35.29,17.55Zm41.57,38.33c.93,1.8,1.87,3.6,2.8,5.4,11.45-6.2,22.9-12.41,38.2-20.69-15.04,.82-24.72,1.36-35.32,1.94-1.37,3.22-3.52,8.29-5.68,13.35Z"/>
      <path class="cls-1" d="M749.12,808.14c4.69-1.38,10.15-5.05,13.59-3.67,22.6,9.06,45.42,18.04,66.55,29.91,4.67,2.62,7.1,21.54,3.39,24.79-24.55,21.49-19.75,52.79-29.2,79.07-4.32,12.02-9.27,19.49-23.8,22.96-15.54,3.71-25.78,14.6-30.4,34.25-4.51,19.21-20.13,36.38-33.12,52.66-3.32,4.17-15.12,1.58-22.96,2.09,11.15,23.51,9.94,25.68-16.53,33.58-3.72,1.11-6.93,4.6-9.87,7.5-4.46,4.41-8.47,9.28-10.3,11.31-6.69,13.94-13.28,25.11-17.28,37.13-1.99,5.96,.78,13.5,1.82,24.96-22.29,33.76-22.34,36.1,4.99,65.01-12.9-.82-22.35-1.42-34.85-2.22,5.49-6.5,7.85-9.29,10.2-12.06-5.97-5.38-10.89-11.49-17.22-15.19-15.22-8.9-10.26-22.98-12.38-36.2-2.55-15.94,12.73-25.34,10.34-40.11-1.55-9.56-4.29-19.48-3.17-28.84,4.82-39.97,10.13-79.91,16.73-119.62,4.78-28.76,5.37-53.94-26.89-68.41-6.54-2.93-9.67-13.84-13.96-21.31-8.14-14.21-20.21-27.88-22.8-43.11-2.77-16.29-6.72-35.79,8.29-50.89,15.01-15.1,15.25-32,4.63-47.37,12.57-9.93,24.32-19.23,38.78-30.66v20.35c5.91-20.36,17.3-16.43,30.03-8.18,.95,.62,2.52,.65,3.72,.44,24.52-4.16,39.23,11.13,54.22,26.6,2.66,2.74,8.06,3.89,12.21,3.93,17.65,.18,28.02,8.94,33.53,25.31,2.91,8.63,7.46,16.71,11.7,25.98Z"/>
      <path class="cls-1" d="M702.63,178.61c5.3-31.56-31.2-68.31-64.86-57.3-11.28,3.69-22.9,4.23-26.88-12.94,6.66-1.06,13.46-2.13,20.25-3.21,.02-.82,.03-1.64,.05-2.47-11.87-2.32-23.73-4.65-35.6-6.97-.22-1.88-.44-3.76-.66-5.63,9.78-3.42,19.7-6.5,29.29-10.41,5.49-2.24,10.43-5.83,15.62-8.81-3.29-4.16-6.59-8.32-11.78-14.88,9.54-3.43,19.02-5.98,27.69-10.19,9.68-4.7,18.07-12.54,28.06-15.97,8.93-3.07,21.4-13.14,26.22,2.09,5.69-.43,10.37-.16,14.67-1.3,3.84-1.02,7.26-3.59,14.07-7.15,5.73,2.27,15.01,5.96,29.62,11.77-7.62-7.22-11.06-10.47-15.58-14.75,5.78-3.47,10.83-8.78,16.48-9.52,28.18-3.73,56.51-8.27,84.82-8.46,16.93-.11,33.91,7.27,50.86,11.28-.12,1.92-.24,3.83-.36,5.75-20.19,3.33-40.38,6.66-60.57,9.99,.23,.98,.47,1.95,.7,2.93h59.21c-.34,.99-2.09,6.12-3.36,9.83,20.24-4.61,41.26-9.39,62.27-14.18,.7,1.76,1.41,3.53,2.11,5.29-1.21,1.84-2.11,4.96-3.67,5.34-19.45,4.73-30.46,17.88-41.02,34.33-12.19,19-14.13,17.76,7.95,32.1-4.11,.56-6.9,.69-9.56,1.36-2.99,.75-5.86,1.99-11.12,3.83,6.76,5.39,12.23,9.76,19.23,15.34-4.41,2.68-7.79,4.74-12.67,7.71,2.45,3.14,4.84,6.21,7.4,9.49-2.98,.87-6.38,1.87-10.02,2.93,1.41,3.15,2.65,5.9,4.12,9.19-8.62,1.02-16.77,1.99-24.92,2.96,.03,1.7,.06,3.39,.09,5.09,4.91,.76,9.81,1.52,19.45,3.02-7.12,2.57-10.23,3.69-13.37,4.82,4.71,6.57,9.44,13.13,14.18,19.69-1.17,1.46-2.35,2.91-3.52,4.37-5.72-2.5-11.44-5-18.24-7.97-1.52,2.56-3.55,5.97-5.67,9.53,5.82,2.13,11.04,4.04,21.71,7.94-16.7,6.51-29.42,10.49-41.18,16.36-10.03,5.01-19.05,12.08-28.35,18.49-3.08,2.12-5.48,7.04-8.44,7.26-37.04,2.72-38.86,33.04-46.13,58.67-2.77,9.76-5.78,11.98-15.93,7.85-14.8-6.02-26.21-13.92-31.99-29.53-4.84-13.08-11.48-25.48-16.8-38.4-4.2-10.18-4.64-19.02,8.46-24.24,1.95-.78,1.63-11.98-.66-16.98-1.54-3.38-8.38-4.33-12.28-8.74,4.98,.75,9.97,1.51,14.95,2.26,.49-1.2,.97-2.4,1.46-3.6-8.37-4.94-16.74-9.89-25.81-15.25Z"/>
      <path class="cls-1" d="M1787.93,906.07c10.04-21.69,17.95-28.41,42.77-19.3-5.79,20.09-3.23,23.8,28.14,37.56,2.82-14.52,5.5-28.31,8.59-44.24,6.15,9.76,14.44,17.81,16.56,27.26,5.76,25.63,25.45,41.79,38.94,62.01,12.82,19.22,15.3,41.94,4.12,62.3-4.54,8.26-10.48,16.89-11.35,25.78-1.57,16.16-15.51,21-24.27,20.35-13.52-1-33.62,7.03-39.48-16.76-2.03-8.22-9.28-15.16-14.5-23.23-2.01,1.65-5.67,4.65-9.36,7.68-19.31-25.88-39.21-28.34-69.07-11.72-12.71,7.07-27.35,11.05-41.54,14.8-3.26,.86-11.33-4.4-12.04-7.89-4.27-21.12-5.82-42.83-10.72-63.76-4.01-17.15,3.88-27.2,17.64-30.22,21.44-4.7,34.59-18.53,45.88-34.77,8.14-11.71,15.87-17.69,29.68-5.83Z"/>
      <path class="cls-1" d="M511,77.55c-1.7-4.41-3.39-8.81-5.1-13.24,14.79-2.51,27.83-4.73,40.87-6.95-.18-.74-.36-1.47-.54-2.21-16.35-.78-32.76-.96-49-2.74-4.39-.48-8.25-5.8-12.35-8.9,3.73-3.39,6.99-8.91,11.25-9.83,34.03-7.36,68.02-16.15,102.51-19.7,19.71-2.03,40.34,4.94,60.56,7.85,.22,1.98,.45,3.96,.67,5.94-9.51,3.2-19.02,6.39-28.44,9.56,3.43,8.23-25.76,26.74-63.71,39.53,3.5,2.97,6.97,5.92,10.43,8.86-3.06,2.9-5.67,6.68-9.28,8.54-9.82,5.05-20.06,9.29-31.17,14.33,6.83,1.68,13.2,3.24,19.56,4.8-.03,1.51-.06,3.03-.09,4.54h-65.64c4.73-6.3,8.62-11.47,13.34-17.75,3.38,2.37,7.46,5.25,11.55,8.12l3-3.65c-5.17-4.47-10.34-8.93-18.22-15.75,8.64-1.02,16.78-1.98,30.02-3.53-8.99-3.62-14.77-5.95-20.56-8.29l.32,.47Z"/>
      <path class="cls-1" d="M517.95,187.29c-7.65-14.35-3.7-24.94,11.1-26.69,5.34-.63,11.85,8.59,17.83,13.31-.89,1.82-1.78,3.64-2.67,5.45,5.16-1.5,10.25-3.82,15.49-4.26,5.43-.46,11.81-.61,16.35,1.8,10.45,5.54,19.44,14,30.12,18.87,11,5.02,22.57,7.41,16.91,23.93-.48,1.4,5.69,5.71,9.3,7.75,9.62,5.44,19.53,10.38,31.18,16.5-5.96,7.01-10.31,12.12-15.04,17.68-6.52-4.92-12.76-9.63-18.99-14.34-1.87,1.24-3.74,2.47-5.62,3.71,6.69,10.55,13.38,21.11,22.8,35.96-11.39-2.48-17.08-3.72-24.53-5.34,3.81,5.17,6.61,8.98,9.41,12.78-1.05,1.37-2.11,2.73-3.16,4.1-10.07-6.99-19.82-14.51-30.34-20.75-5.81-3.44-12.76-5.44-19.46-6.73-4.86-.94-10.16,.33-16.14-3.67,2.91-1.41,6.12-4.45,8.67-3.98,19.46,3.62,16.19-15.35,22.57-23.89,1.64-2.2-6.14-13.14-11.3-18.38-12.75-12.96-25.34-22.95-47.1-15.13-11.38,4.09-26.78-3.03-37.48-4.65-4.03-9.39-11.14-17.94-9.25-23.38,3.03-8.75,11.99-15.45,22.16-20.53v30.38c2.4-.17,4.8-.34,7.2-.5Z"/>
      <path class="cls-1" d="M322.65,169.99c10.27,2.04,20.6,3.83,30.8,6.19,7.68,1.78,15.19,4.28,21.72,6.16,2.99-5.62,7.59-14.27,12.19-22.91,1.84,.24,3.67,.48,5.51,.72-3.05,21.28-.74,39.66,21.71,44.8-2.42,4.96-4.32,8.84-7.66,15.67-24.49-9.74-57.4,18.75-86.71-10.49,9.23-1.67,17.92-3.24,26.61-4.81,.02-1.01,.03-2.03,.05-3.04-9.37-.53-18.73-1.05-22.83-1.28-6.45-6.76-10.07-10.54-15.45-16.17,3.53-4.57,7.89-10.2,12.25-15.84,.94,.06,1.54,.4,1.8,1.02Z"/>
      <path class="cls-1" d="M1808.6,803.68c4.97,5.79,9.94,11.58,16.08,18.73,27.43-19.14,47.89,2.01,68.02,18.38,8.2,6.66,11.56,19.28,18.1,30.92-4.67-1.77-10.09-2.16-12.5-5.06-8.53-10.26-15.77-18.27-29.38-5.41-1.74,1.64-21.16,3.26-22.79-13.8-.52-5.42-8.86-10.82-14.58-14.87-9.79-6.94-20.33-12.82-30.55-19.14,2.53-3.25,5.06-6.51,7.59-9.76Z"/>
      <path class="cls-1" d="M1667.53,795.29c16.6-12.98,31.33-24.5,47.6-37.22,1.4,.94,4.83,3.24,8.15,5.47-4.59,20.99-9.07,41.46-13.47,61.6-34.76-2.89-35.64-3.59-42.28-29.84Z"/>
      <path class="cls-1" d="M1315.25,886.71c-2.07,13.43-3.16,24.2-5.5,34.69-2.9,12.97-5.96,26.06-10.73,38.41-2.31,5.98-8.68,10.39-13.22,15.52-3.76-6.72-10.08-13.22-10.7-20.22-.99-11.37,1.31-23.14,3.15-34.59,.64-3.97,3.21-8.47,6.3-11.05,8.4-7.02,17.55-13.15,30.69-22.76Z"/>
      <path class="cls-1" d="M1436.86,131.68c-11.35,5.06-18.14,8.63-25.29,11.19-19.85,7.08-38.6,15.22-51.32,33.6-7.96,11.5-13.97,21.86,1.8,33.56-1.48,1.03-2.96,2.06-4.44,3.09-9.61-5.02-19.23-10.05-26.69-13.94,18.13-46.67,53.85-65.75,105.94-67.49Z"/>
      <path class="cls-1" d="M510.69,77.09c-5.37,4.24-10.17,9.94-16.26,12.32-6.79,2.66-14.98,3.69-22.12,2.59-3.03-.47-4.94-8.19-9.05-15.73-1.01-.07-6.41-.43-13.98-.93,1.53-7.48,1.1-15.41,4.76-20.19,2.98-3.9,12.7-7.31,16.26-5.3,14.22,8.02,27.21,18.23,40.68,27.67,.03,.04-.29-.42-.29-.42Z"/>
      <path class="cls-1" d="M1025.96,406.54c-2.18,20.54-23.14,7.9-30.74,14.52-1.31-4.21-2.58-7.46-3.27-10.82-.48-2.31-1.2-5.76-.02-7.05,11.65-12.66,4.71-20.33-4.96-30.42-4.41-4.6-1.68-16.05-2.19-24.39,2.5-.7,5.01-1.41,7.51-2.11,10.88,19.47,21.76,38.94,33.67,60.27Z"/>
      <path class="cls-1" d="M322.65,169.99c-.26-.61-.87-.95-1.8-1.02-5.41,2.93-12.86,4.5-15.87,9.03-11.04,16.63-22.22,23.47-36.78,4.06,2.53-8,5.49-17.39,9.42-29.82,12.69,1.49,26.64,2.53,40.24,5.27,2.34,.47,3.24,8.13,4.8,12.48Z"/>
      <path class="cls-1" d="M447.69,116.76c13.91,3.4,30.57-4.55,41.48,12.58,3.16,4.96,18.43,2.5,28.17,2.88,9.99,.39,20,.09,30,.09,.25,3,.5,6,.74,9-14.38,2.03-29.09,6.88-43.05,5.28-12.84-1.47-32.7,4.73-35.53-19.72-.48-4.15-14.2-6.77-21.81-10.1Z"/>
      <path class="cls-1" d="M1135.57,101.8c-6.18,8.98-12.38,18-19.34,28.11-13.75-8.53-10.4-16.63,.98-26.74-12.91-.69-31.41,10.03-29.03-16.93,8.67,1.89,17.8,3.88,27.43,5.98v-11.13c16.21,12.29,30.25,22.94,44.29,33.58-1.5,1.74-3.01,3.47-4.51,5.21-6.17-5.63-12.34-11.26-19.81-18.08Z"/>
      <path class="cls-1" d="M1648.65,820.75c-1,5.37-2.13,11.41-3.61,19.3-31.6-15.11-33.54-51.76-56.17-72.05,26.44,9.86,40.49,33.97,59.77,52.76Z"/>
      <path class="cls-1" d="M899.27,251.88c2.59-1.79,5.93-4.67,6.34-4.3,11.43,10.25,22.98-.96,34.25,.5,6.99,.91,13.79,3.36,20.67,5.13,.34,2.74,.68,5.49,1.03,8.23-11.93,5.15-24.29,15.04-35.64,13.98-9.28-.86-17.35-14.77-26.64-23.53Z"/>
      <path class="cls-1" d="M329.39,120.68c12.8,6.26,23.28,11.38,35.46,17.34v-18.94c8.14,5.46,14.87,9.97,25.27,16.95-16.92,5.62-32.33,10.74-52.31,17.38,5.1-5.93,7.33-8.53,10.93-12.71h-26.67c2.23-6.09,4.22-11.54,7.32-20.02Z"/>
      <path class="cls-1" d="M1804.41,553.41c25.69-7.96,51.5-15.79,53.01-51.11,9.03,14.42,4.2,44.66-6.51,47.81-14.35,4.22-29.62,5.32-44.49,7.75-.67-1.48-1.33-2.96-2-4.45Z"/>
      <path class="cls-1" d="M1571.85,84.53c1.93-4.56,2.98-10.73,6.53-14.61,6.19-6.77,12.85-7.15,17.98,2.47,2.92,5.48,7.14,10.28,12.34,14.76,2.93,12.6-4.79,14.01-14.59,10.05-7.54-3.05-14.29-8.03-22.26-12.66Z"/>
      <path class="cls-1" d="M2060.28,1103.29c-8.15,12.37-15.55,25.36-24.92,36.74-2.7,3.28-11.04,1.93-17.34-1.5,12.82-12.85,25.64-25.7,38.46-38.56,1.27,1.11,2.53,2.21,3.8,3.32Z"/>
      <path class="cls-1" d="M420.61,160.09c5.78-1.27,11.55-2.54,22.01-4.84-13.42,11.59,13.8,25.36-6.87,32.04-6.37,2.06-16.36-7.11-23.37-10.5,4.62-4.87,7.77-8.19,10.92-11.52-.9-1.73-1.79-3.46-2.69-5.19Z"/>
      <path class="cls-1" d="M394.44,123.17c12.02-1.12,18.47-.71,24.26-2.46,12.43-3.76,21.48,1.66,19.3,12.98-.52,2.7-5.28,7.24-6.37,6.78-11.8-4.91-23.26-10.65-37.2-17.3Z"/>
      <path class="cls-1" d="M681.48,433.82c4.63-8.04,8.59-14.91,13.13-22.8,8.73,9.31,16.97,18.09,27.74,29.59-16.02-2.66-27.16-4.51-40.87-6.79Z"/>
      <path class="cls-1" d="M981.93,379.98c-2.49,15.43-1.75,30.5-22.65,30.73,1.15-14.39,.49-28.89,22.65-30.73Z"/>
      <path class="cls-1" d="M542.97,277.72q-35.01-2.65-27.22-19.4c9.25,6.59,18.23,13,27.22,19.4Z"/>
      <path class="cls-1" d="M1882.34,153.57c-10.86,1.29-21.69,2.99-32.58,3.59-3.01,.17-8.02-2.32-8.79-4.68-.81-2.46,2.49-9.06,3.81-9.01,13.11,.51,26.18,2.02,39.26,3.25-.56,2.28-1.13,4.57-1.69,6.85Z"/>
      <path class="cls-1" d="M1179.52,79.45c-19.15,22.03-34.27,7.86-49.53,0h49.53Z"/>
      <path class="cls-1" d="M2062.82,1067.55c10.62,4.62,16.42,7.14,22.27,9.68-4.84,8.02-9.53,15.81-16.51,27.38-2.18-14.03-3.72-23.95-5.75-37.06Z"/>
      <path class="cls-1" d="M1869.15,449.54v-52.07c1.83,0,3.66,0,5.5-.01v52.51c-1.83-.14-3.66-.29-5.5-.43Z"/>
      <path class="cls-1" d="M1627.81,788.84c-5.59-10.71-11.18-21.42-18.51-35.45,21.41,7.38,21.73,7.97,18.51,35.45Z"/>
      <path class="cls-1" d="M286.79,125.06c11.09-5.64,22.18-11.28,33.27-16.91,1.31,2.64,2.62,5.28,3.94,7.92-11.5,5.01-22.99,10.03-34.49,15.04-.91-2.02-1.81-4.03-2.72-6.05Z"/>
      <path class="cls-1" d="M1644.06,106.54c-9.72,1.9-19.44,3.8-33.15,6.48,5.54-8.36,8.79-13.26,12.37-18.67,7.61,2.94,14.2,5.48,20.79,8.03,0,1.39,0,2.77-.01,4.16Z"/>
      <path class="cls-1" d="M1178.13,510.29c4.87-15.98,7.35-28.33,12.5-39.44,3.07-6.62,10.33-11.29,15.71-16.83,4.91,5.36,9.81,10.72,13.79,15.07,7.38-6.56,15.67-13.92,23.96-21.28,1.4,1.32,2.8,2.65,4.2,3.97-2.36,5.48-4.72,10.95-7.58,17.56,5.97,4.53,12.86,8.95,18.67,14.49,3.18,3.03,7.16,8.96,6.08,11.77-1.32,3.44-7.42,5.35-11.76,7.2-2.15,.92-5.51,1.15-7.45,.1-22.48-12.25-43.44-3.38-68.14,7.39Z"/>
      <path class="cls-1" d="M1323.23,477.33c-.11-.37,.16,2.28,1.4,4.34,2.64,4.4,18.19,40.79,16.62,43.73-2.68,5.02-10.05,13.2-10.85,12.7-7.65-4.78-21.2-13.61-20.13-16.57,4.82-13.23-1.79-21.47-7.21-31.45-7.28-13.38-6.73-26.3,9.99-31.83,7.06-2.33,15.53-.36,23.36-.35-3.64,5.36-7.27,10.72-13.18,19.42Z"/>
      <path class="cls-1" d="M528.47,447.22c7.69,4.02,15.37,8.03,23.54,12.31-5.9,6.98-10.27,12.14-16.6,19.61-3.32-6.26-6.67-12.58-11.47-21.62-3.74,4.77-8.49,9.03-10.87,14.35-2.43,5.44-2.54,11.92-4.47,22.27-11.11-23.52-7.39-33.68,10.54-41.12,3.35-1.39,6.25-3.86,9.36-5.83,0,0-.02,.03-.02,.03Z"/>
      <path class="cls-1" d="M528.5,447.19h-52.52q24.69-21.83,52.49,.05s.03-.05,.03-.05Z"/>
      <path class="cls-1" d="M285.14,273.27c-2.07-32.78,14.71-24.21,35.29-17.55-13.82,6.87-23.82,11.84-35.29,17.55Z"/>
      <path class="cls-1" d="M326.71,311.6c2.15-5.07,4.31-10.13,5.68-13.35,10.6-.58,20.28-1.11,35.32-1.94-15.3,8.29-26.75,14.49-38.2,20.69-.93-1.8-1.87-3.6-2.8-5.4Z"/>
    </g>
  </g>
</svg>